<svg width="24" height="24" viewBox="0 0 24 24" fill="none" xmlns="http://www.w3.org/2000/svg">
<g clip-path="url(#clip0_181_460)">
<path d="M5 17H4V18C4 18.5523 3.55228 19 3 19C2.44772 19 2 18.5523 2 18V6C2 5.44772 1.55228 5 1 5C0.447715 5 0 5.44772 0 6V18C0 19.6569 1.34315 21 3 21H5V17Z" fill="black"/>
<path fill-rule="evenodd" clip-rule="evenodd" d="M16 1C17.6569 1 19 2.34315 19 4V11.8938L18.308 12.5857L15.652 15.2418C15.4769 15.0911 15.2491 15 15 15H8C7.44771 15 7 15.4477 7 16C7 16.5523 7.44771 17 8 17H13.8938L12.4777 18.4161C11.9002 18.9936 11.5133 19.734 11.3691 20.5378L11.2861 21H4V4C4 2.34315 5.34315 1 7 1H16ZM15 5C15.5523 5 16 5.44772 16 6C16 6.55228 15.5523 7 15 7H8C7.44771 7 7 6.55228 7 6C7 5.44772 7.44771 5 8 5H15ZM15 10C15.5523 10 16 10.4477 16 11C16 11.5523 15.5523 12 15 12H8C7.44771 12 7 11.5523 7 11C7 10.4477 7.44771 10 8 10H15Z" fill="black"/>
<path fill-rule="evenodd" clip-rule="evenodd" d="M23.7205 16.2755C24.1111 15.885 24.1111 15.2518 23.7205 14.8613L21.9978 13.1386C21.6073 12.7481 20.9741 12.7481 20.5836 13.1386L19.7223 14L19.6226 14.0996L22.7595 17.2365L22.8592 17.1369L23.7205 16.2755ZM21.3453 18.6508L17.0289 22.9672C16.7401 23.2559 16.3699 23.4494 15.968 23.5215L14.1771 23.843C13.4914 23.966 12.8931 23.3678 13.0162 22.682L13.3376 20.8912C13.4097 20.4892 13.6032 20.119 13.8919 19.8303L18.2084 15.5138L21.3453 18.6508Z" fill="black"/>
</g>
<defs>
<clipPath id="clip0_181_460">
<rect width="24" height="24" fill="white"/>
</clipPath>
</defs>
</svg>
