<svg width="24" height="24" viewBox="0 0 24 24" fill="none" xmlns="http://www.w3.org/2000/svg">
<path d="M2 19L2 14C2 12.8954 2.89543 12 4 12H9C10.1046 12 11 12.8954 11 14V19C11 20.1046 10.1046 21 9 21H4C2.89543 21 2 20.1046 2 19Z" fill="black"/>
<path d="M6.98564 9.12584L11.2572 1.43708C11.407 1.16731 11.6914 1 12 1C12.3086 1 12.593 1.16731 12.7428 1.43708L17.0144 9.12584C17.2322 9.51803 16.9486 10 16.5 10L7.5 10C7.05135 10 6.76776 9.51803 6.98564 9.12584Z" fill="black"/>
<path d="M17.5 12C19.9853 12 22 14.0147 22 16.5C22 18.9853 19.9853 21 17.5 21C15.0147 21 13 18.9853 13 16.5C13 14.0147 15.0147 12 17.5 12Z" fill="black"/>
</svg>
