<svg width="24" height="24" viewBox="0 0 24 24" fill="none" xmlns="http://www.w3.org/2000/svg">
<path fill-rule="evenodd" clip-rule="evenodd" d="M6.4443 3.6853C8.08879 2.58649 10.0222 2 12 2C14.6513 2.00287 17.1932 3.05736 19.0679 4.9321C20.9426 6.80684 21.9971 9.34871 22 12C22 13.9778 21.4135 15.9112 20.3147 17.5557C19.2159 19.2002 17.6541 20.4819 15.8268 21.2388C13.9996 21.9957 11.9889 22.1937 10.0491 21.8078C8.10929 21.422 6.32746 20.4696 4.92894 19.0711C3.53041 17.6725 2.578 15.8907 2.19215 13.9509C1.8063 12.0111 2.00433 10.0004 2.76121 8.17316C3.51809 6.3459 4.79981 4.78412 6.4443 3.6853ZM10.5112 13.2653C10.4457 13.8591 10.9702 14.3463 11.6066 14.3463C12.2359 14.3463 12.7005 13.8585 12.8675 13.2893C12.8759 13.2609 12.8846 13.2345 12.8938 13.2103C12.9945 12.9553 13.1456 12.7307 13.347 12.5366C13.5525 12.3425 13.8144 12.156 14.1326 11.9772C14.5114 11.764 14.8397 11.5262 15.1177 11.2636C15.3957 10.9971 15.6112 10.6927 15.7643 10.3501C15.9214 10.0038 16 9.60799 16 9.1627C16 8.49667 15.8247 7.92769 15.4742 7.45576C15.1237 6.98382 14.6403 6.62417 14.0239 6.37678C13.4075 6.12559 12.6984 6 11.8967 6C11.1674 6 10.5007 6.12369 9.89635 6.37108C9.29203 6.61465 8.80656 6.98573 8.43994 7.4843C8.26842 7.71577 8.13482 7.97639 8.03913 8.26617C7.84576 8.85181 8.39836 9.36822 9.05191 9.36822H9.44608C9.93681 9.36822 10.2946 8.9689 10.5672 8.58611C10.7162 8.37298 10.9076 8.21313 11.1413 8.10657C11.3749 7.99619 11.6227 7.94101 11.8846 7.94101C12.1545 7.94101 12.4003 7.99429 12.6218 8.10086C12.8475 8.20742 13.0267 8.35966 13.1597 8.55756C13.2926 8.75547 13.3591 8.98573 13.3591 9.24834C13.3591 9.49572 13.3007 9.72027 13.1839 9.92198C13.067 10.1199 12.9099 10.3007 12.7125 10.4643C12.5151 10.628 12.2915 10.7859 12.0417 10.9382C11.7073 11.1361 11.4213 11.3568 11.1836 11.6004C10.9459 11.844 10.7646 12.1637 10.6397 12.5595C10.5848 12.739 10.542 12.9864 10.5112 13.2653ZM10.6155 17.6004C10.9015 17.8668 11.246 18 11.6489 18C11.9067 18 12.1444 17.9391 12.362 17.8173C12.5795 17.6917 12.7548 17.5262 12.8877 17.3206C13.0247 17.1113 13.0952 16.8811 13.0993 16.6299C13.0952 16.2569 12.9482 15.9372 12.6581 15.6708C12.368 15.4044 12.0316 15.2712 11.6489 15.2712C11.246 15.2712 10.9015 15.4044 10.6155 15.6708C10.3335 15.9372 10.1945 16.2569 10.1985 16.6299C10.1945 17.0067 10.3335 17.3302 10.6155 17.6004Z" fill="black"/>
</svg>
