<svg width="1920" height="1080" viewBox="0 0 1920 1080" fill="none" xmlns="http://www.w3.org/2000/svg">
<path d="M960 -1328L960.087 -1.3252L1133.34 -1316.64L960.259 -1.30249L1303.71 -1282.75L960.427 -1.25757L1468.2 -1226.91L960.587 -1.19104L1624 -1150.08L960.738 -1.10425L1768.44 -1053.57L960.876 -0.998413L1899.04 -939.038L960.998 -0.87561L2013.57 -808.435L961.104 -0.737793L2110.08 -664L961.191 -0.587402L2186.91 -508.204L961.258 -0.42688L2242.75 -343.712L961.302 -0.259033L2276.64 -173.339L961.325 -0.0869141L2288 0L961.325 0.0869141L2276.64 173.339L961.302 0.259033L2242.75 343.712L961.258 0.42688L2186.91 508.204L961.191 0.587402L2110.08 664L961.104 0.737793L2013.57 808.435L960.998 0.87561L1899.04 939.038L960.876 0.998413L1768.44 1053.57L960.738 1.10425L1624 1150.08L960.587 1.19104L1468.2 1226.91L960.427 1.25757L1303.71 1282.75L960.259 1.30249L1133.34 1316.64L960.087 1.3252L960 1328L959.913 1.3252L786.661 1316.64L959.741 1.30249L616.288 1282.75L959.573 1.25757L451.796 1226.91L959.413 1.19104L296 1150.08L959.262 1.10425L151.565 1053.57L959.124 0.998413L20.9622 939.038L959.002 0.87561L-93.5732 808.435L958.896 0.737793L-190.082 664L958.809 0.587402L-266.912 508.204L958.742 0.42688L-322.75 343.712L958.698 0.259033L-356.639 173.339L958.675 0.0869141L-368 0L958.675 -0.0869141L-356.639 -173.339L958.698 -0.259033L-322.75 -343.712L958.742 -0.42688L-266.912 -508.204L958.809 -0.587402L-190.082 -664L958.896 -0.737793L-93.5732 -808.435L959.002 -0.87561L20.9622 -939.038L959.124 -0.998413L151.565 -1053.57L959.262 -1.10425L296 -1150.08L959.413 -1.19104L451.796 -1226.91L959.573 -1.25757L616.288 -1282.75L959.741 -1.30249L786.661 -1316.64L959.913 -1.3252L960 -1328Z" stroke="url(#paint0_radial_1_518)"/>
<defs>
<radialGradient id="paint0_radial_1_518" cx="0" cy="0" r="1" gradientUnits="userSpaceOnUse" gradientTransform="translate(960) rotate(90) scale(1328)">
<stop stop-color="white" stop-opacity="0.5"/>
<stop offset="1" stop-color="white" stop-opacity="0.1"/>
</radialGradient>
</defs>
</svg>
